<?xml version="1.0" encoding="utf-8"?>
<!-- Generator: Adobe Illustrator 16.0.4, SVG Export Plug-In . SVG Version: 6.00 Build 0)  -->
<!DOCTYPE svg PUBLIC "-//W3C//DTD SVG 1.1//EN" "http://www.w3.org/Graphics/SVG/1.1/DTD/svg11.dtd">
<svg version="1.1" id="Layer_1" xmlns="http://www.w3.org/2000/svg" xmlns:xlink="http://www.w3.org/1999/xlink" x="0px" y="0px"
	 width="564.2px" height="424px" viewBox="0 0 564.2 424" enable-background="new 0 0 564.2 424" xml:space="preserve">
<path opacity="0.4" fill="#231F20" d="M0,0v424h564.2V0H0z M145.9,323.2c-15.4,0-27.8-12.5-27.8-27.8s12.5-27.8,27.8-27.8
	s27.8,12.5,27.8,27.8S161.3,323.2,145.9,323.2z M281.9,370.2c-15.4,0-27.8-12.5-27.8-27.8s12.5-27.8,27.8-27.8
	c15.4,0,27.8,12.5,27.8,27.8S297.3,370.2,281.9,370.2z M281.9,241.2c-15.4,0-27.8-12.5-27.8-27.8s12.5-27.8,27.8-27.8
	s27.8,12.5,27.8,27.8S297.3,241.2,281.9,241.2z M366.9,155.6c-15.4,0-27.8-12.4-27.8-27.8c0-15.4,12.4-27.8,27.8-27.8
	c15.4,0,27.8,12.4,27.8,27.8C394.7,143.2,382.2,155.6,366.9,155.6z M423.6,284.2c-15.3,0-27.7-12.4-27.7-27.7s12.4-27.7,27.7-27.7
	c15.3,0,27.7,12.4,27.7,27.7S438.9,284.2,423.6,284.2z"/>
</svg>
